<svg width="33" height="36" viewBox="0 0 33 36" fill="none" xmlns="http://www.w3.org/2000/svg">
<g filter="url(#filter0_b_64_154)">
<path d="M25.5574 0.854474C19.5798 -0.284825 13.3723 -0.284825 7.39469 0.854474C4.75076 1.42412 1.41711 4.61416 0.842343 7.12061C-0.192239 12.0196 -0.192239 17.0325 0.842343 21.9315C1.50142 24.3266 4.57473 27.3459 7.05318 28.1065C7.2784 28.1756 7.6246 28.1899 7.6246 28.4255V35.6031C7.6246 36.2505 8.54187 35.5979 8.99417 35.1347L11.7208 32.3422C11.7489 32.3135 11.7755 32.2862 11.8034 32.2573C12.1457 31.904 14.5536 29.4194 14.9813 28.9954C14.9816 28.9952 14.9817 28.995 14.9819 28.9948C14.9887 28.9883 15.1001 28.8812 15.2115 28.8812C18.6601 28.9951 22.2237 28.6533 25.6723 28.0837C28.3162 27.5141 31.6499 24.324 32.2247 21.8176C33.2592 16.9186 33.2592 11.9057 32.2247 7.00668C31.5349 4.61416 28.2013 1.42412 25.5574 0.854474ZM25.6723 22.2733C25.0975 23.4126 24.4078 24.324 23.2583 24.8937C22.5824 25.117 21.8548 25.1508 21.1787 24.9281C21.1437 24.9167 21.109 24.9052 21.0742 24.8937C17.3957 23.4126 13.947 21.3618 11.1882 18.3997C9.69377 16.6907 8.42927 14.7539 7.39469 12.7032C6.93488 11.6778 6.47507 10.7664 6.1302 9.741C5.78534 8.82956 6.36011 7.91812 6.93488 7.23454C7.50964 6.55096 8.19937 6.09524 9.00404 5.75346C9.57881 5.41167 10.1536 5.63953 10.6134 6.09525C11.533 7.23454 12.4526 8.37384 13.1424 9.62707C13.4773 10.208 13.5073 10.8495 13.1878 11.3752C12.9328 11.7947 12.4565 12.0158 12.1078 12.3614C11.9928 12.4753 11.7629 12.5892 11.648 12.8171C11.4181 13.1589 11.4181 13.5007 11.533 13.8425C12.4526 16.4629 14.1769 18.5136 16.8209 19.6529C17.2807 19.8808 17.6256 19.9947 18.2003 19.9947C19.005 19.8808 19.3499 18.9693 19.9246 18.5136C20.4994 18.0579 21.1891 18.0579 21.8788 18.3997C22.4536 18.7415 23.0284 19.1972 23.7181 19.6529C24.2929 20.1086 24.8676 20.4504 25.4424 20.9061C25.7873 21.134 25.9022 21.7036 25.6723 22.2733ZM20.8443 13.7285C20.6143 13.7285 20.7293 13.7285 20.8443 13.7285C20.6224 13.7285 20.4809 13.6755 20.3809 13.5823C20.1459 13.3632 20.1762 12.9955 20.1301 12.6775C20.0989 12.4621 20.0194 12.2523 19.941 12.0492C19.8809 11.8938 19.804 11.7414 19.7054 11.5969C19.4499 11.2223 19.0305 11.0069 18.6242 10.8055C18.5979 10.7925 18.5715 10.7794 18.5452 10.7664C18.5335 10.7625 18.5219 10.7588 18.5105 10.7552C17.9449 10.5769 17.1657 10.5619 17.1657 9.96886C17.1657 9.741 17.5106 9.51314 17.7405 9.51314C19.5798 9.62707 20.9592 10.6524 21.1891 12.8171C21.1891 12.931 21.1891 13.1589 21.1891 13.2728C21.1891 13.5007 21.0742 13.7285 20.8443 13.7285ZM19.6947 8.71563C19.3534 8.58034 19.0122 8.44504 18.6468 8.3336C18.1287 8.17555 17.5925 8.03205 17.0508 8.03205C16.9169 8.03205 16.8003 7.99769 16.7145 7.93563C16.4318 7.73113 16.5044 7.18501 16.8122 7.02065C17.0209 6.90919 17.2848 7.01699 17.5196 7.04591C18.5298 7.1703 19.4571 7.39571 20.3844 7.80419C22.3503 8.77835 23.486 10.3695 23.8903 12.4799C23.9331 12.7034 23.948 12.9314 23.948 13.1589C23.948 13.3868 23.948 13.6146 23.948 13.9564C23.948 14.1834 23.9393 14.44 23.7538 14.5707C23.5951 14.6825 23.3744 14.7172 23.1971 14.6489C22.9044 14.536 22.7985 14.1561 22.7985 13.8425C22.7985 12.8171 22.5686 11.7917 22.1087 10.8803C21.419 9.85493 20.6143 9.17135 19.6947 8.71563ZM25.9022 15.5514C25.5574 15.5514 25.3274 15.2096 25.3274 14.8678C25.3274 14.1843 25.2125 13.5007 25.0975 12.8171C24.6377 9.17135 21.6489 6.20917 18.0854 5.63952C17.9191 5.60656 17.7528 5.58313 17.5892 5.56372C16.8476 5.4757 15.7391 5.68008 15.5564 4.95595C15.4414 4.61416 15.7863 4.27237 16.1312 4.27237C16.2844 4.27237 16.4442 4.27438 16.5974 4.27808C20.9204 4.38239 16.587 4.27237 16.3611 4.27237C21.1891 4.3863 25.2125 7.57633 26.0172 12.3614C26.09 12.8669 26.1629 13.3724 26.2065 13.9069C26.2575 14.5319 26.5293 15.5514 25.9022 15.5514Z" fill="white" fill-opacity="0.32"/>
</g>
<defs>
<filter id="filter0_b_64_154" x="-19.9336" y="-20" width="72.9346" height="75.875" filterUnits="userSpaceOnUse" color-interpolation-filters="sRGB">
<feFlood flood-opacity="0" result="BackgroundImageFix"/>
<feGaussianBlur in="BackgroundImage" stdDeviation="10"/>
<feComposite in2="SourceAlpha" operator="in" result="effect1_backgroundBlur_64_154"/>
<feBlend mode="normal" in="SourceGraphic" in2="effect1_backgroundBlur_64_154" result="shape"/>
</filter>
</defs>
</svg>
