<svg width="33" height="32" viewBox="0 0 33 32" fill="none" xmlns="http://www.w3.org/2000/svg">
<g filter="url(#filter0_b_64_156)">
<path d="M27.7924 4.63648C24.7955 1.65589 20.7997 0 16.5819 0C7.8133 0 0.709626 7.06512 0.709626 15.7861C0.709626 18.5459 1.48659 21.3057 2.81853 23.624L0.598633 31.793L9.03425 29.5852C11.3651 30.7995 13.918 31.4618 16.5819 31.4618C25.3505 31.4618 32.4542 24.3967 32.4542 15.6757C32.3432 11.5912 30.7893 7.61708 27.7924 4.63648ZM24.2406 21.4161C23.9076 22.2993 22.3536 23.1824 21.5767 23.2928C20.9107 23.4032 20.0228 23.4032 19.1348 23.1824C18.5798 22.9616 17.8029 22.7408 16.9149 22.2993C12.9191 20.6434 10.3662 16.6693 10.1442 16.3381C9.92221 16.1173 8.47928 14.2406 8.47928 12.2536C8.47928 10.2665 9.47823 9.38336 9.81121 8.94179C10.1442 8.50022 10.5882 8.50022 10.9212 8.50022C11.1432 8.50022 11.4761 8.50022 11.6981 8.50022C11.9201 8.50022 12.2531 8.38983 12.5861 9.16257C12.9191 9.93532 13.696 11.9224 13.807 12.0328C13.918 12.2536 13.918 12.4743 13.807 12.6951C13.696 12.9159 13.585 13.1367 13.363 13.3575C13.1411 13.5783 12.9191 13.9094 12.8081 14.0198C12.5861 14.2406 12.3641 14.4614 12.5861 14.7926C12.8081 15.2342 13.585 16.4485 14.806 17.5524C16.3599 18.8771 17.5809 19.3187 18.0248 19.5395C18.4688 19.7603 18.6908 19.6499 18.9128 19.4291C19.1348 19.2083 19.9118 18.3251 20.1337 17.8836C20.3557 17.442 20.6887 17.5524 21.0217 17.6628C21.3547 17.7732 23.3526 18.7667 23.6856 18.9875C24.1296 19.2083 24.3515 19.3187 24.4625 19.4291C24.5735 19.7602 24.5735 20.533 24.2406 21.4161Z" fill="white" fill-opacity="0.32"/>
</g>
<defs>
<filter id="filter0_b_64_156" x="-19.4014" y="-20" width="71.8555" height="71.793" filterUnits="userSpaceOnUse" color-interpolation-filters="sRGB">
<feFlood flood-opacity="0" result="BackgroundImageFix"/>
<feGaussianBlur in="BackgroundImage" stdDeviation="10"/>
<feComposite in2="SourceAlpha" operator="in" result="effect1_backgroundBlur_64_156"/>
<feBlend mode="normal" in="SourceGraphic" in2="effect1_backgroundBlur_64_156" result="shape"/>
</filter>
</defs>
</svg>
