<svg width="20" height="20" viewBox="0 0 20 20" fill="none" xmlns="http://www.w3.org/2000/svg">
<g clip-path="url(#clip0)">
<path d="M18.5993 9.12279C17.6138 8.04486 16.2299 7.43192 14.7621 7.43192H10.5893V5.80446C10.5893 4.98016 11.0716 4.21927 11.8055 3.88109L13.3781 3.14134L12.8539 2L11.2813 2.73976C10.107 3.31042 9.35216 4.49403 9.35216 5.80446V7.43192H5.22133C2.32766 7.43192 -0.0208293 9.82028 0.000139331 12.737C0.021108 15.6538 2.3696 18.021 5.26327 17.9999C6.71011 17.9999 8.09404 17.3869 9.10054 16.309H10.9248C12.8959 18.4437 16.2089 18.5705 18.3267 16.5838C20.4446 14.597 20.5704 11.2575 18.5993 9.12279ZM6.26977 13.3288H5.59877V14.0052C5.59877 14.3645 5.32618 14.6393 4.96971 14.6393C4.61324 14.6393 4.34065 14.3645 4.34065 14.0052V13.3288H3.66965C3.31319 13.3288 3.04059 13.0541 3.04059 12.6948C3.04059 12.3354 3.31319 12.0607 3.66965 12.0607H4.34065V11.3843C4.34065 11.025 4.61324 10.7503 4.96971 10.7503C5.32618 10.7503 5.59877 11.025 5.59877 11.3843V12.0607H6.26977C6.62623 12.0607 6.89883 12.3354 6.89883 12.6948C6.89883 13.0541 6.62623 13.3288 6.26977 13.3288ZM14.0491 15.3579C13.3362 15.3579 12.7491 14.7661 12.7491 14.0475C12.7491 13.3288 13.3362 12.737 14.0491 12.737C14.7621 12.737 15.3492 13.3288 15.3492 14.0475C15.3492 14.7661 14.7621 15.3579 14.0491 15.3579ZM16.167 12.8427C15.454 12.8427 14.8669 12.2509 14.8669 11.5323C14.8669 10.8137 15.454 10.2219 16.167 10.2219C16.8799 10.2219 17.467 10.8137 17.467 11.5323C17.467 12.2509 16.8799 12.8427 16.167 12.8427Z" fill="#CCD2D9"/>
</g>
<defs>
<clipPath id="clip0">
<rect width="20" height="20" fill="white"/>
</clipPath>
</defs>
</svg>
