<svg width="20" height="20" viewBox="0 0 20 20" fill="none" xmlns="http://www.w3.org/2000/svg">
<path d="M0 2C0 1.44772 0.447715 1 1 1H15C15.5523 1 16 1.44772 16 2C16 2.55228 15.5523 3 15 3H1C0.447715 3 0 2.55228 0 2Z" fill="#CCD2D9"/>
<path d="M0 7C0 6.44772 0.447715 6 1 6H13C13.5523 6 14 6.44772 14 7C14 7.55228 13.5523 8 13 8H1C0.447716 8 0 7.55228 0 7Z" fill="#CCD2D9"/>
<path d="M0 12C0 11.4477 0.447715 11 1 11H8C8.55229 11 9 11.4477 9 12C9 12.5523 8.55229 13 8 13H1C0.447715 13 0 12.5523 0 12Z" fill="#CCD2D9"/>
<path d="M0 17C0 16.4477 0.447715 16 1 16H19C19.5523 16 20 16.4477 20 17C20 17.5523 19.5523 18 19 18H1C0.447716 18 0 17.5523 0 17Z" fill="#CCD2D9"/>
</svg>
