<svg width="20" height="20" viewBox="0 0 20 20" fill="none" xmlns="http://www.w3.org/2000/svg">
<g clip-path="url(#clip0)">
<path d="M3.0594 2.36017H3.05771C2.86856 2.36017 2.69064 2.43391 2.5563 2.56792C2.42047 2.70341 2.34566 2.88381 2.34566 3.07587V13.8076C2.34566 14.2011 2.66707 14.522 3.06223 14.523C4.72809 14.527 7.51908 14.8742 9.44448 16.8891V5.6581C9.44448 5.5247 9.4104 5.39938 9.34609 5.29567C7.76582 2.75075 4.72903 2.36408 3.0594 2.36017Z" fill="#CCD2D9"/>
<path d="M17.6544 13.8076V3.0758C17.6544 2.88375 17.5796 2.70334 17.4438 2.56785C17.3094 2.43384 17.1314 2.36011 16.9424 2.36011H16.9407C15.2711 2.36408 12.2343 2.75075 10.654 5.29567C10.5897 5.39938 10.5557 5.5247 10.5557 5.6581V16.889C12.4811 14.8742 15.2721 14.5269 16.9379 14.523C17.333 14.522 17.6544 14.201 17.6544 13.8076Z" fill="#CCD2D9"/>
<path d="M19.2845 4.83507H18.7656V13.8076C18.7656 14.8123 17.9469 15.6317 16.9406 15.6342C15.5276 15.6375 13.1977 15.9138 11.5477 17.4755C14.4015 16.7768 17.4098 17.231 19.1243 17.6217C19.3384 17.6705 19.5596 17.6201 19.7311 17.4834C19.902 17.347 20.0001 17.1432 20.0001 16.9244V5.55062C20.0001 5.15608 19.679 4.83507 19.2845 4.83507Z" fill="#CCD2D9"/>
<path d="M1.23448 13.8076V4.83507H0.715558C0.321079 4.83507 0 5.15608 0 5.55062V16.9242C0 17.1431 0.0980475 17.3468 0.268957 17.4832C0.440338 17.6198 0.661349 17.6704 0.87576 17.6215C2.59024 17.2307 5.59867 16.7766 8.45228 17.4753C6.80231 15.9137 4.47247 15.6375 3.05947 15.6341C2.05321 15.6317 1.23448 14.8123 1.23448 13.8076Z" fill="#CCD2D9"/>
</g>
<defs>
<clipPath id="clip0">
<rect width="20" height="20" fill="white"/>
</clipPath>
</defs>
</svg>
