<svg width="20" height="20" viewBox="0 0 20 20" fill="none" xmlns="http://www.w3.org/2000/svg">
<path fill-rule="evenodd" clip-rule="evenodd" d="M17.0363 13.1382C13.617 13.3691 13.0278 15.6772 12.6458 19.0909L11.0922 19.0655L11.3391 16.1573L10.03 15.9495L9.67833 19.0424L8.31574 19.0216L8.49742 16.5681L7.17908 16.3604L6.8623 18.9986L5.15265 18.9801C5.47874 14.927 5.17361 12.859 2.19687 11.8249C0.799332 7.2087 3.16349 0.030458 11.1015 0.997558C19.0395 1.96466 19.107 8.99518 17.0363 13.1382ZM7.15578 7.3241C4.17671 6.96173 3.48959 11.4118 6.65267 11.7972C9.53392 12.1504 10.1162 7.68417 7.15578 7.3241ZM13.1908 8.98133C11.1108 8.72744 10.6287 11.8411 12.8368 12.1111C14.8609 12.3558 15.2592 9.23292 13.1908 8.98133Z" fill="#CCD2D9"/>
</svg>
