<svg width="20" height="20" viewBox="0 0 20 20" fill="none" xmlns="http://www.w3.org/2000/svg">
<path d="M10 0C8.02219 0 6.08879 0.58649 4.4443 1.6853C2.79981 2.78412 1.51809 4.3459 0.761209 6.17316C0.00433286 8.00043 -0.1937 10.0111 0.192152 11.9509C0.578004 13.8907 1.53041 15.6725 2.92894 17.0711C4.32746 18.4696 6.10929 19.422 8.0491 19.8078C9.98891 20.1937 11.9996 19.9957 13.8268 19.2388C15.6541 18.4819 17.2159 17.2002 18.3147 15.5557C19.4135 13.9112 20 11.9778 20 10C19.997 7.34875 18.9425 4.80694 17.0678 2.93222C15.1931 1.0575 12.6513 0.00297764 10 0V0ZM3 12.3822C4.48379 12.0546 5.99079 11.8428 7.5074 11.7487C7.5074 11.7487 7.99177 13.6605 8.21875 17.1771C7.01809 16.8763 5.91169 16.2801 5.00023 15.4426C4.08876 14.6052 3.40117 13.5531 3 12.3822ZM10 11.6667C9.83519 11.6667 9.67407 11.6178 9.53703 11.5262C9.39999 11.4347 9.29318 11.3045 9.2301 11.1522C9.16703 11 9.15053 10.8324 9.18268 10.6708C9.21484 10.5091 9.2942 10.3606 9.41075 10.2441C9.52729 10.1275 9.67578 10.0482 9.83743 10.016C9.99908 9.98386 10.1666 10.0004 10.3189 10.0634C10.4712 10.1265 10.6013 10.2333 10.6929 10.3704C10.7845 10.5074 10.8333 10.6685 10.8333 10.8333C10.8333 11.0543 10.7455 11.2663 10.5893 11.4226C10.433 11.5789 10.221 11.6667 10 11.6667ZM11.7813 17.1777C12.0079 13.6592 12.4929 11.7487 12.4929 11.7487C14.0095 11.8429 15.5165 12.0547 17.0003 12.3825C16.5991 13.5535 15.9115 14.6057 15 15.4432C14.0885 16.2807 12.982 16.8769 11.7813 17.1777ZM10 8.33333C7.4797 8.34316 4.98023 8.79042 2.61292 9.65521C2.70161 7.75088 3.52235 5.95439 4.90384 4.64068C6.28532 3.32697 8.1208 2.59757 10.0272 2.60471C11.9336 2.61184 13.7635 3.35497 15.1351 4.67898C16.5067 6.00299 17.314 7.80558 17.3884 9.71052C15.0284 8.81112 12.5256 8.34459 10 8.33333Z" fill="#CCD2D9"/>
</svg>
