<svg width="20" height="20" viewBox="0 0 20 20" fill="none" xmlns="http://www.w3.org/2000/svg">
<path d="M0 7.71429V8.28571C0 8.60156 0.262068 8.85714 0.585933 8.85714C0.908665 8.85714 1.17187 9.1133 1.17757 9.34766L0.204647 16.043C0.0538668 17.0736 0.869994 18 1.93749 18H4.24231C5.12352 18 5.87308 17.3566 5.98636 16.5034L6.39034 13.4286H8.789C9.75829 13.4286 10.5468 12.6596 10.5468 11.7143V10H17.0702C17.2922 10 17.4948 9.87779 17.5943 9.68415L18.6042 7.71429C4.42684 7.71429 7.58862 7.71429 0 7.71429ZM7.0312 12.2857C6.3846 12.2857 5.85933 11.7729 5.85933 11.1429C5.85933 10.5128 6.3846 10 7.0312 10H7.0701C6.90874 10.5043 6.87983 11.0446 7.02206 11.5647C7.09229 11.8234 7.21089 12.0606 7.34936 12.2857H7.0312ZM9.37493 11.7143C9.37493 11.986 9.17552 12.203 8.91501 12.2609C8.54466 12.0354 8.26799 11.6869 8.15385 11.2718C8.03627 10.8398 8.10748 10.3843 8.33494 10H9.37493V11.7143Z" fill="#CCD2D9"/>
<path d="M19.4141 3.14286H18.8281V2.57143C18.8281 2.25558 18.5661 2 18.2422 2C17.9183 2 17.6563 2.25558 17.6563 2.57143V3.14286H1.7578C1.43393 3.14286 1.17187 3.39844 1.17187 3.71429C1.17187 4.02956 0.908665 4.28571 0.585933 4.28571C0.262068 4.28571 0 4.5413 0 4.85714V6.57143H20V3.71429C20 3.39844 19.7379 3.14286 19.4141 3.14286Z" fill="#CCD2D9"/>
</svg>
