<svg width="22" height="22" viewBox="0 0 22 22" fill="none" xmlns="http://www.w3.org/2000/svg">
<path d="M10.0349 1.62692C10.4297 0.791025 11.5703 0.791025 11.9651 1.62692L13.9125 5.75048C14.0693 6.08242 14.3723 6.31249 14.7228 6.36572L19.0774 7.02696C19.9601 7.161 20.3126 8.29463 19.6738 8.94529L16.5228 12.155C16.2692 12.4134 16.1534 12.7857 16.2133 13.1505L16.9572 17.6827C17.108 18.6015 16.1852 19.3021 15.3956 18.8683L11.5008 16.7285C11.1873 16.5562 10.8127 16.5562 10.4992 16.7285L6.60436 18.8683C5.81482 19.3021 4.89205 18.6015 5.04283 17.6827L5.78668 13.1505C5.84656 12.7857 5.73082 12.4134 5.47717 12.155L2.32618 8.94529C1.68743 8.29463 2.0399 7.161 2.92263 7.02696L7.27719 6.36572C7.62772 6.31249 7.93074 6.08242 8.08751 5.75048L10.0349 1.62692Z" fill="#CCD2D9"/>
</svg>
