<svg width="20" height="20" viewBox="0 0 20 20" fill="none" xmlns="http://www.w3.org/2000/svg">
<path d="M3.3939 6.0661L6.72679 9.39899C7.48331 8.7938 8.40214 8.40048 9.41413 8.28661V3.56958C7.10944 3.70462 5.01686 4.62235 3.3939 6.0661Z" fill="#CCD2D9"/>
<path d="M2.56527 6.89466C0.999375 8.65489 0 10.965 0 13.5008C0 13.8247 0.26207 14.0868 0.585938 14.0868H4.14062C4.46449 14.0868 4.72656 13.8247 4.72656 13.5008C4.72656 12.2581 5.17645 11.1298 5.89816 10.2275L2.56527 6.89466Z" fill="#CCD2D9"/>
<path d="M14.5273 8.91923C14.3298 8.74701 14.0437 8.7247 13.8257 8.86603L8.74059 12.1098C8.06137 12.5435 7.65625 13.2822 7.65625 14.0868C7.65625 15.3794 8.70738 16.4305 10 16.4305C10.9087 16.4305 11.7429 15.8984 12.1252 15.075L14.672 9.60701C14.7819 9.37126 14.723 9.09087 14.5273 8.91923Z" fill="#CCD2D9"/>
<path d="M17.4347 6.89466L15.7125 8.61684C15.9294 9.07977 15.9579 9.62169 15.734 10.1019L14.9636 11.756C15.1619 12.3009 15.2734 12.8866 15.2734 13.5008C15.2734 13.8247 15.5355 14.0868 15.8594 14.0868H19.4141C19.7379 14.0868 20 13.8247 20 13.5008C20 10.965 19.0006 8.65489 17.4347 6.89466Z" fill="#CCD2D9"/>
<path d="M10.5859 3.56958V8.28661C11.0793 8.34212 11.5493 8.4663 11.9904 8.64673L13.1958 7.87774C13.6787 7.56478 14.2689 7.49763 14.8835 7.7888L16.6062 6.0661C14.9832 4.62235 12.8906 3.70462 10.5859 3.56958Z" fill="#CCD2D9"/>
</svg>
