<svg width="20" height="20" viewBox="0 0 20 20" fill="none" xmlns="http://www.w3.org/2000/svg">
<path d="M15.4443 9.94074C15.4669 9.95317 15.4792 9.96367 15.4851 9.96949C15.4912 9.97544 15.4941 9.97969 15.4954 9.98203C15.4981 9.98668 15.5 9.99257 15.5 10C15.5 10.0074 15.4981 10.0133 15.4954 10.018C15.4941 10.0203 15.4912 10.0246 15.4851 10.0305C15.4792 10.0363 15.4669 10.0468 15.4443 10.0593L3.77759 16.4705C3.70471 16.5106 3.62578 16.509 3.55574 16.4705C3.5221 16.452 3.50698 16.4329 3.50275 16.4262C3.5026 16.426 3.50245 16.4258 3.5023 16.4256C3.50121 16.4241 3.5 16.4224 3.5 16.4113L3.5 3.58874C3.5 3.57756 3.50121 3.57591 3.5023 3.57444C3.50245 3.57423 3.5026 3.57402 3.50275 3.57379C3.50698 3.56709 3.5221 3.54797 3.55574 3.52948C3.62578 3.49099 3.70471 3.48943 3.77759 3.52948L15.4443 9.94074Z" stroke="#CCD2D9" stroke-width="3"/>
</svg>
