<svg width="20" height="20" viewBox="0 0 20 20" fill="none" xmlns="http://www.w3.org/2000/svg">
<path fill-rule="evenodd" clip-rule="evenodd" d="M0 10C0 15.5142 4.48608 20 10 20C15.5139 20 20 15.5142 20 10C20 4.48575 15.5139 0 10 0C4.48608 0 0 4.48575 0 10ZM14.9993 12.2568C15.5952 12.1286 16.132 12.013 16.0326 11.6201C15.8172 10.7703 16.4371 10.1574 16.9864 9.61439C17.511 9.09567 17.9712 8.64074 17.577 8.10396C17.4428 7.921 17.4261 7.46476 17.4055 6.90533C17.3979 6.69612 17.3897 6.47247 17.3746 6.24329C17.9517 7.37172 18.2797 8.64816 18.2797 10.0002C18.2797 14.5657 14.5654 18.2799 9.99999 18.2799C8.98111 18.2799 8.00512 18.0939 7.10287 17.7559C7.46899 17.4296 7.8466 16.7122 7.92144 16.4812C7.98188 16.2947 7.86634 15.9065 7.78317 15.6272C7.74206 15.489 7.70886 15.3775 7.70876 15.3301C7.70853 15.1867 6.84895 14.1833 6.63394 14.0399C6.49193 13.9452 6.53751 13.569 6.58483 13.1784C6.60916 12.9776 6.63394 12.7731 6.63394 12.601C6.63394 12.2495 6.08262 12.009 5.60116 11.799C5.3882 11.7061 5.18891 11.6192 5.05703 11.5313C4.84357 11.3889 4.70074 11.5822 4.54965 11.7866C4.39636 11.994 4.23457 12.2129 3.98189 12.1046C3.58111 11.9329 3.54615 11.441 3.51181 10.9578C3.50316 10.8361 3.49454 10.7149 3.48013 10.5995C3.42828 10.1843 2.32616 10.0565 1.72094 10.0175C1.72094 10.0146 1.72085 10.0117 1.72077 10.0088C1.72069 10.006 1.72061 10.0031 1.72061 10.0002C1.72061 6.37085 4.06933 3.28127 7.32572 2.16633L7.32046 2.17158C7.29122 2.20079 7.26178 2.2302 7.23883 2.26294C7.15005 2.38916 7.03714 2.43478 6.92911 2.47842C6.69872 2.5715 6.49054 2.65561 6.58596 3.49351C6.61471 3.74535 6.62973 3.96958 6.64305 4.16846C6.69482 4.94157 6.72095 5.33167 7.42831 5.47147C7.96918 5.57843 8.30228 5.53887 8.61736 5.50146C8.82003 5.47739 9.01524 5.4542 9.25349 5.47147C9.66547 5.5012 9.78216 6.21256 9.85826 6.67653C9.89449 6.89739 9.92152 7.06218 9.96683 7.0707C9.96683 7.0707 10.7658 9.27086 13.1079 9.89908C13.6054 10.0326 12.593 11.0545 11.8912 11.3618C11.7411 11.4275 11.5933 11.4812 11.4526 11.5323C10.9348 11.7203 10.5143 11.873 10.4407 12.4607C10.3764 12.9718 10.8596 12.9276 11.2614 12.8909C11.447 12.8739 11.6151 12.8586 11.7039 12.9002C11.9849 13.0321 13.1968 13.4931 13.6928 12.807C13.9228 12.4885 14.4832 12.3679 14.9993 12.2568Z" fill="#CCD2D9"/>
</svg>
