<svg width="20" height="20" viewBox="0 0 20 20" fill="none" xmlns="http://www.w3.org/2000/svg">
<g clip-path="url(#clip0)">
<path d="M19.504 8.13967L17.7192 7.92528C17.5368 7.24451 17.2696 6.60134 16.9256 6.00456L18.0352 4.59422C18.2048 4.37743 18.1856 4.04224 17.9896 3.84705L16.1504 2.00712C15.9568 1.81273 15.6208 1.79193 15.4032 1.96152L13.9904 3.07268C13.396 2.72869 12.7528 2.4615 12.0736 2.28071L11.86 0.49598C11.8272 0.223191 11.5752 0 11.3 0H8.6984C8.4232 0 8.1712 0.223191 8.1392 0.49598L7.9248 2.28071C7.2448 2.4623 6.6008 2.73029 6.0064 3.07348L4.5944 1.96392C4.3784 1.79433 4.0424 1.81433 3.848 2.00872L2.008 3.84945C1.8144 4.04304 1.7944 4.37902 1.9648 4.59662L3.0736 6.00776C2.7296 6.60294 2.4624 7.24691 2.2808 7.92768L0.4968 8.14127C0.224 8.17327 0 8.42526 0 8.70125V11.3027C0 11.5779 0.2232 11.8283 0.4968 11.8619L2.2816 12.0763C2.464 12.7547 2.7304 13.3979 3.0744 13.993L1.9656 15.4058C1.7968 15.6226 1.816 15.9578 2.0112 16.153L3.848 17.9937C4.0424 18.1873 4.3784 18.2089 4.5944 18.0393L6.0072 16.9273C6.6024 17.2713 7.2456 17.5393 7.9256 17.7201L8.14 19.504C8.1728 19.7776 8.424 20 8.6992 20H11.3008C11.5768 20 11.828 19.7776 11.86 19.504L12.0744 17.7201C12.7552 17.5377 13.3984 17.2705 13.9928 16.9273L15.4056 18.0369C15.6224 18.2065 15.9576 18.1865 16.152 17.9921L17.9912 16.1514C18.1864 15.9578 18.2064 15.6218 18.036 15.4034L16.9256 13.9922C17.2704 13.3971 17.5368 12.7539 17.7192 12.0747L19.5032 11.8603C19.7768 11.8275 20 11.5779 20 11.3011V8.69965C20.0008 8.42286 19.7784 8.17247 19.504 8.13967ZM10.0008 14.9994C7.2392 14.9994 5.0008 12.7611 5.0008 9.9996C5.0008 7.23811 7.2392 4.9998 10.0008 4.9998C12.7624 4.9998 15.0008 7.23811 15.0008 9.9996C15.0008 12.7611 12.7632 14.9994 10.0008 14.9994Z" fill="#CCD2D9"/>
</g>
<defs>
<clipPath id="clip0">
<rect width="20" height="20" fill="white"/>
</clipPath>
</defs>
</svg>
