<svg width="31" height="31" viewBox="0 0 31 31" fill="none" xmlns="http://www.w3.org/2000/svg">
<g opacity="0.2">
<path d="M29 15.5C29 19.0804 27.5777 22.5142 25.0459 25.0459C22.5142 27.5777 19.0804 29 15.5 29C11.9196 29 8.4858 27.5777 5.95406 25.0459C3.42232 22.5142 2 19.0804 2 15.5C2 11.9196 3.42232 8.4858 5.95406 5.95406C8.4858 3.42232 11.9196 2 15.5 2C19.0804 2 22.5142 3.42232 25.0459 5.95406C27.5777 8.4858 29 11.9196 29 15.5ZM15.5 7.90625C15.5 7.68247 15.4111 7.46786 15.2529 7.30963C15.0946 7.15139 14.88 7.0625 14.6562 7.0625C14.4325 7.0625 14.2179 7.15139 14.0596 7.30963C13.9014 7.46786 13.8125 7.68247 13.8125 7.90625V17.1875C13.8125 17.3362 13.8519 17.4823 13.9266 17.6109C14.0013 17.7395 14.1086 17.8461 14.2378 17.9199L20.144 21.2949C20.3378 21.3996 20.5649 21.4244 20.7768 21.3639C20.9886 21.3034 21.1684 21.1625 21.2777 20.9712C21.3871 20.7799 21.4172 20.5535 21.3618 20.3402C21.3063 20.127 21.1697 19.9439 20.981 19.8301L15.5 16.6981V7.90625Z" fill="white"/>
</g>
</svg>
