<svg width="31" height="31" viewBox="0 0 31 31" fill="none" xmlns="http://www.w3.org/2000/svg">
<g opacity="0.2">
<path d="M8.71875 27.125H22.2812C22.9271 27.125 23.25 27.4479 23.25 28.0938C23.25 28.7396 22.9271 29.0625 22.2812 29.0625H8.71875C8.07292 29.0625 7.75 28.7396 7.75 28.0938C7.75 27.4479 8.07292 27.125 8.71875 27.125Z" fill="white"/>
<path fill-rule="evenodd" clip-rule="evenodd" d="M4.84375 12.5938C4.84375 17.1139 8.39519 22.6048 15.5 29.0625C22.6048 22.6048 26.1562 17.1139 26.1562 12.5938C26.1562 9.76754 25.0335 7.05708 23.0351 5.05864C21.0367 3.06021 18.3262 1.9375 15.5 1.9375C12.6738 1.9375 9.96333 3.06021 7.96489 5.05864C5.96646 7.05708 4.84375 9.76754 4.84375 12.5938ZM18.682 15.682C17.8381 16.5259 16.6935 17 15.5 17C14.3065 17 13.1619 16.5259 12.318 15.682C11.4741 14.8381 11 13.6935 11 12.5C11 11.3065 11.4741 10.1619 12.318 9.31802C13.1619 8.4741 14.3065 8 15.5 8C16.6935 8 17.8381 8.4741 18.682 9.31802C19.5259 10.1619 20 11.3065 20 12.5C20 13.6935 19.5259 14.8381 18.682 15.682Z" fill="white"/>
</g>
</svg>
