<svg width="195" height="93" viewBox="0 0 195 93" fill="none" xmlns="http://www.w3.org/2000/svg">
<path fill-rule="evenodd" clip-rule="evenodd" d="M17.8554 43.689L16.7969 33.1197L27.1702 33.0493L24.6411 37.1303L20.1557 37.3246L17.8554 43.689Z" fill="white"/>
<path fill-rule="evenodd" clip-rule="evenodd" d="M16.8524 31.0708L14.9107 28.6328C14.9107 28.6328 14.7611 27.7912 15.9114 27.5418C17.0614 27.2925 28.8496 26.3528 28.8496 26.3528C28.8496 26.3528 31.4969 26.1022 36.2015 23.4932C63.1261 8.56218 92.77 6.00551 119.738 16.6792C139.534 14.8388 160.054 15.6145 178.838 22.7075C178.838 22.7075 180.435 23.6652 180.03 25.4862C179.625 27.3068 178.986 28.7562 178.986 28.7562L177.701 28.9535C177.701 28.9535 178.059 25.3578 176.959 24.8108C175.86 24.2638 167.167 24.8218 167.167 24.8218L164.024 22.7698L173.596 22.5178C173.596 22.5178 163.222 18.3555 153.266 19.6498C153.266 19.6498 143.276 15.7262 118.242 19.9955C97.1904 7.72685 57.5003 12.9075 36.0556 25.9465L64.598 26.7238L16.8524 31.0708Z" fill="white"/>
<path fill-rule="evenodd" clip-rule="evenodd" d="M50.1484 22.596C50.1484 22.596 63.4052 17.42 73.5448 16.319C83.6844 15.218 88.4478 15.1934 88.4478 15.1934C88.4478 15.1934 105.698 15.3437 113.673 20.6594L86.3885 23.3127C86.3885 23.3127 68.7401 25.7077 50.1484 22.596Z" fill="white"/>
<path fill-rule="evenodd" clip-rule="evenodd" d="M32.0312 45.0758L35.7147 44.6998C35.7147 44.6998 39.3614 40.0434 45.4557 39.6188C51.5501 39.1944 53.3508 42.8334 53.3508 42.8334L59.2319 42.2331C53.1739 33.6378 36.8343 35.9598 32.0312 45.0758Z" fill="white"/>
<path fill-rule="evenodd" clip-rule="evenodd" d="M140.372 34.036C144.283 28.4706 153.576 28.1556 158.889 32.1456L165.353 31.486C159.335 23.783 141.401 24.2283 135.923 34.4903L140.372 34.036Z" fill="white"/>
<path d="M98.6438 74.565C97.8897 74.624 97.2449 74.3337 96.7097 73.6937C96.1744 73.0537 95.8562 72.0794 95.7555 70.771C95.7241 70.3664 95.7165 69.9604 95.7327 69.552C95.8922 67.3137 96.3659 65.0027 97.1541 62.6194C97.6206 61.2904 97.8402 60.4474 97.8128 60.0904C97.8035 59.9714 97.786 59.901 97.7606 59.879C97.7355 59.857 97.6639 59.8507 97.546 59.86C97.1924 59.8877 96.5822 60.4264 95.7145 61.4757C94.5774 62.714 93.61 63.6217 92.813 64.199C92.0159 64.776 91.2285 65.0954 90.4509 65.1564C89.9088 65.199 89.4987 65.1834 89.2204 65.1094C88.942 65.0354 88.6525 64.8907 88.3513 64.675C87.4552 64.123 86.823 63.299 86.4538 62.2034C86.332 61.854 86.2511 61.4174 86.2108 60.894C86.1557 60.1804 86.1488 59.4747 86.19 58.7777C86.4363 56.7477 87.0564 54.6407 88.0496 52.4564C88.5326 51.3417 88.9836 50.4267 89.4029 49.7117C89.8219 48.9964 90.2802 48.3324 90.7784 47.7187C91.2129 47.206 91.5821 46.8417 91.8855 46.6264C92.1889 46.411 92.4085 46.2624 92.5445 46.1797C92.5914 46.176 92.6261 46.1614 92.6475 46.1357C92.807 46.0514 93.0636 45.9954 93.4172 45.9677C93.5585 45.9567 93.6704 45.9477 93.753 45.9414C93.8352 45.9347 93.9309 45.9454 94.0399 45.9727C94.1485 46 94.2991 46.03 94.4912 46.0627C94.7831 46.1597 95.0578 46.3414 95.3157 46.6084C95.8941 47.0417 96.2085 47.5794 96.2576 48.2217C96.287 48.6024 96.2213 48.9784 96.0602 49.35C95.939 49.623 95.4867 50.3644 94.7025 51.575L94.1379 52.5527C93.231 54.012 92.5317 55.3954 92.0397 56.7027C91.2562 58.535 90.8857 59.725 90.928 60.2724C90.961 60.7004 91.1651 60.8877 91.5401 60.8344C92.5062 60.7587 94.6329 58.8204 97.9197 55.02C101.344 51.161 103.747 48.495 105.127 47.0224C105.811 46.3704 106.401 46.0247 106.896 45.986C107.108 45.9694 107.313 46.013 107.511 46.117C108.08 46.4314 108.39 46.9097 108.439 47.552C108.456 47.766 108.438 48.0067 108.388 48.274C108.283 48.761 107.846 49.8604 107.077 51.572L106.105 53.264C104.763 55.8347 103.757 57.8524 103.087 59.317C102.414 60.734 101.771 62.2327 101.158 63.8127L100.222 66.435C100.124 66.706 100.03 67.0247 99.9401 67.3907C99.9236 67.4877 99.8965 67.5974 99.8585 67.72C99.5406 68.822 99.3999 69.611 99.4366 70.0867C99.464 70.4437 99.5964 70.6247 99.8341 70.63C100.329 70.591 101.089 69.8494 102.116 68.4044C102.18 68.3037 102.255 68.202 102.341 68.0994C102.405 67.9987 102.48 67.897 102.567 67.7947C102.953 67.2617 103.355 66.6437 103.775 65.9404C104.599 64.6314 105.441 63.4044 106.301 62.2597C106.75 61.626 107.165 61.007 107.545 60.403C108.032 59.6467 108.351 59.1787 108.503 58.9994C108.587 58.849 108.734 58.61 108.946 58.2824C108.987 58.2074 109.04 58.1194 109.103 58.0187L113.128 52.102C114.276 50.3844 114.928 49.4597 115.083 49.3277C115.107 49.3257 115.142 49.317 115.188 49.3014C115.234 49.286 115.28 49.2644 115.325 49.237C115.372 49.233 115.419 49.2237 115.465 49.208C115.511 49.1924 115.546 49.1837 115.57 49.1817C115.758 49.167 115.912 49.2327 116.03 49.379C116.148 49.5254 116.214 49.6937 116.228 49.884C116.241 50.0504 116.11 50.4197 115.834 50.992C115.558 51.564 115.164 52.2174 114.652 52.9517C111.213 58.176 108.513 62.3494 106.548 65.4714C104.768 68.5074 103.458 70.5847 102.619 71.7037C101.171 73.5167 99.8456 74.4704 98.6438 74.565ZM113.413 70.5684C112.471 70.6427 111.69 70.279 111.071 69.478C110.452 68.677 110.092 67.6104 109.989 66.278C109.961 65.9214 109.958 65.5627 109.977 65.202C109.998 63.932 110.08 62.8484 110.224 61.9517C110.828 58.4097 111.885 55.2034 113.395 52.3324C114.877 49.4157 116.224 47.2037 117.435 45.6964C117.804 45.2607 118.112 44.949 118.359 44.7624C118.605 44.5754 118.917 44.467 119.294 44.4377C119.553 44.417 119.742 44.4084 119.861 44.411C119.979 44.4137 120.111 44.433 120.256 44.4697C120.771 44.6924 121.165 45.0324 121.437 45.4897C121.564 45.5994 121.644 45.707 121.676 45.812C121.707 45.9174 121.732 46.089 121.751 46.3267C121.726 46.616 121.665 46.908 121.569 47.2027C121.474 47.4974 121.267 47.8964 120.951 48.4C120.887 48.5007 120.825 48.6254 120.766 48.7737C120.665 48.997 120.531 49.2587 120.364 49.559C119.361 51.313 118.561 52.776 117.964 53.948C116.462 56.914 115.173 60.019 114.095 63.263C113.795 64.603 113.67 65.594 113.719 66.2364C113.771 66.9024 114.033 67.229 114.506 67.2157C115.048 67.173 116.013 66.3074 117.4 64.619C117.748 64.2087 118.061 63.813 118.34 63.432C118.939 62.5954 119.816 61.3657 120.971 59.743C125.734 52.6434 128.5 48.848 129.268 48.357C129.518 48.2177 129.726 48.1417 129.891 48.1287C130.244 48.1007 130.446 48.2644 130.498 48.6194C130.516 48.8574 130.48 49.0817 130.389 49.292C130.299 49.5027 130.09 49.7884 129.762 50.149C127.939 52.638 124.865 57.2114 120.543 63.8694C119.735 65.0817 118.789 66.3407 117.704 67.6467C117.094 68.3407 116.623 68.8444 116.292 69.1577C115.221 70.0317 114.262 70.502 113.413 70.5684ZM124.075 39.5744C123.51 39.6187 122.939 39.4364 122.362 39.0267C122.035 38.7894 121.792 38.557 121.632 38.33C121.492 38.054 121.409 37.7374 121.381 37.3807C121.348 36.9524 121.411 36.5287 121.568 36.1094C121.808 35.54 122.189 35.0914 122.709 34.7634C122.799 34.7084 122.897 34.6707 123.002 34.6504C123.107 34.6304 123.254 34.6127 123.443 34.598C123.749 34.5737 124.018 34.6007 124.249 34.678C124.48 34.7557 124.748 34.9264 125.053 35.1894C125.359 35.4764 125.593 35.7334 125.752 35.96C125.948 36.3517 126.06 36.7257 126.088 37.0827C126.134 37.6774 125.928 38.232 125.469 38.7467C125.143 39.1314 124.912 39.365 124.777 39.4474C124.521 39.5154 124.287 39.5577 124.075 39.5744ZM133.736 66.6387C131.615 66.805 129.792 65.9194 128.268 63.9807C127.188 62.5814 126.565 60.7997 126.398 58.6347C126.205 56.1367 126.588 53.7254 127.547 51.4C128.844 48.857 130.277 46.686 131.846 44.8877C133.093 43.545 134.24 42.5814 135.286 41.9967C136.19 41.423 137.101 41.1 138.02 41.0277C139.01 40.95 139.966 41.21 140.889 41.8077C141.298 42.1824 141.655 42.3577 141.961 42.3337C142.362 42.3024 142.885 41.8544 143.529 40.99C144.034 40.4717 144.431 40.0814 144.719 39.8194C145.168 39.497 145.617 39.318 146.065 39.283C146.559 39.244 146.953 39.4287 147.245 39.8364C147.454 40.0834 147.569 40.3497 147.591 40.635C147.608 40.849 147.565 41.0677 147.464 41.291C147.453 41.4597 147.379 41.645 147.24 41.8474C147.102 42.0497 146.879 42.3184 146.573 42.6537L145.69 43.6564C144.711 44.7864 143.693 46.039 142.637 47.4144C141.625 48.7387 140.675 50.1057 139.789 51.5157C139.662 51.717 139.556 51.875 139.469 51.9894C139.383 52.1037 139.271 52.1784 139.131 52.2134C139.044 52.316 138.955 52.3887 138.863 52.432C138.772 52.475 138.667 52.501 138.549 52.5104C137.708 52.361 137.257 51.894 137.197 51.1087C137.153 50.5377 137.348 49.8404 137.782 49.0164C138.076 48.5147 138.51 47.8464 139.086 47.0114C139.468 46.4307 139.724 45.986 139.854 45.6767C139.984 45.367 140.041 45.0934 140.022 44.8557C139.973 44.2134 139.664 43.9024 139.097 43.923C138.861 43.9414 138.549 44.0497 138.162 44.2477C137.278 44.772 136.372 45.7884 135.445 47.2974C134.428 48.861 133.586 50.7104 132.921 52.8447C132.082 55.4957 131.734 57.737 131.875 59.5687C131.97 60.8057 132.25 61.6694 132.715 62.1594C133.179 62.6494 133.741 62.8684 134.401 62.8167C135.249 62.75 136.212 62.3154 137.288 61.513C139.014 60.2284 140.799 58.4727 142.642 56.2457C144.509 54.0167 146.094 51.9657 147.395 50.0924C147.779 49.5357 148.105 49.151 148.373 48.9384C148.642 48.726 148.893 48.6104 149.129 48.592C149.637 48.7194 149.907 48.9974 149.94 49.4257C149.968 49.7824 149.833 50.188 149.536 50.642C148.468 52.4734 146.967 54.6854 145.033 57.2784C143.147 59.868 141.42 61.9184 139.853 63.4294C137.943 65.3987 135.903 66.4684 133.736 66.6387ZM144.601 84.8844C142.668 85.036 141.301 84.521 140.499 83.3397C140.274 82.8787 140.142 82.3984 140.103 81.8987C140.039 81.066 140.225 80.094 140.661 78.983C141.549 76.6634 143.224 74.1024 145.687 71.3004C145.707 71.2507 145.74 71.2124 145.785 71.1847C146.455 70.3424 147.064 69.6244 147.61 69.031C149.186 67.3277 151.577 64.9737 154.783 61.9694L158.994 58.0127C159.639 57.4594 160.095 56.9987 160.363 56.6307C160.631 56.2627 160.842 55.845 160.996 55.3784C161.265 54.5674 161.582 53.4534 161.947 52.0367C162.287 50.5977 162.532 49.4777 162.684 48.676C162.731 48.361 162.745 48.0847 162.727 47.8467C162.701 47.5137 162.614 47.305 162.465 47.221C162.465 47.221 162.452 47.21 162.427 47.1884C162.427 47.1884 162.415 47.1834 162.39 47.173C162.366 47.163 162.33 47.154 162.282 47.1457C162.233 47.1377 162.162 47.1374 162.068 47.1447C161.887 47.2547 161.699 47.425 161.503 47.6557C161.094 48.1904 159.744 50.0557 157.454 53.2514L155.525 55.9157C153.139 59.095 151.145 60.7474 149.542 60.8734C149.095 60.9084 148.676 60.8577 148.286 60.7207C146.911 60.1107 146.143 58.759 145.982 56.6654C145.938 56.0944 145.946 55.4357 146.007 54.689L146.162 53.9227C146.346 52.616 146.862 51.0077 147.71 49.0984C148.13 48.084 148.711 46.8537 149.452 45.407C149.91 44.5814 150.473 43.7354 151.142 42.869C151.784 41.981 152.339 41.339 152.807 40.9434C153.187 40.65 153.566 40.4887 153.943 40.459C154.508 40.4147 155.022 40.6257 155.485 41.092C155.734 41.24 155.907 41.4177 156.006 41.6254C156.105 41.833 156.167 42.0914 156.191 42.4007C156.213 42.6864 156.188 42.9874 156.118 43.304C156.048 43.6207 155.88 44.0647 155.616 44.6357C155.352 45.207 154.938 45.9934 154.376 46.995C153.223 48.9524 152.275 50.9654 151.534 53.034C151.23 53.7044 151.021 54.2234 150.907 54.591C150.793 54.959 150.732 55.239 150.723 55.4314C150.758 55.8834 150.929 56.1094 151.237 56.109C151.732 56.07 152.755 55.188 154.305 53.4627C155.528 52.098 156.844 50.415 158.254 48.4137C160.552 45.313 161.969 43.5504 162.505 43.1254C162.775 42.9367 163.001 42.799 163.185 42.713C163.368 42.6267 163.577 42.5744 163.813 42.556C164.284 42.5187 164.722 42.67 165.128 43.009C165.533 43.348 165.835 43.881 166.033 44.6074C166.178 44.955 166.305 45.8304 166.413 47.234C166.459 47.8287 166.499 48.496 166.532 49.235C166.554 49.5207 166.571 49.7407 166.583 49.8954C166.595 50.05 166.61 50.1624 166.627 50.233C166.644 50.3034 166.66 50.356 166.675 50.3907C166.689 50.4254 166.709 50.454 166.734 50.4757C166.863 50.6094 167.033 50.6677 167.246 50.651C167.387 50.64 167.549 50.5914 167.732 50.505C167.821 50.4264 168.099 50.183 168.565 49.7757C169.031 49.368 169.634 48.8837 170.374 48.323C171.448 47.4967 172.366 46.8084 173.13 46.2577C173.894 45.707 174.417 45.4207 174.7 45.3984L174.773 45.4287C175.061 45.4777 175.215 45.633 175.236 45.8947C175.24 45.9424 175.238 45.9964 175.23 46.0567C175.223 46.1174 175.182 46.204 175.108 46.3177C175.034 46.4314 174.92 46.5657 174.766 46.7214C174.219 47.315 173.686 47.7757 173.166 48.1037C171.323 49.4214 169.793 50.6304 168.573 51.7314C167.378 52.8307 166.65 53.534 166.389 53.8417C166.348 53.9167 166.306 53.9917 166.264 54.067C166.201 54.1677 166.149 54.2557 166.107 54.3307C165.989 54.651 165.835 55.417 165.644 56.6287C165.463 57.361 165.309 57.9714 165.181 58.46C165.038 59.0697 164.93 59.509 164.855 59.778C164.525 61.0247 164.051 62.414 163.434 63.9467C163.313 64.2194 163.198 64.5754 163.09 65.0147C163.052 65.1374 163.025 65.2474 163.008 65.3444C162.971 65.467 162.931 65.5657 162.889 65.6407C162.402 66.7084 162.004 67.5414 161.695 68.14C161.655 68.2387 161.615 68.3377 161.575 68.4367C161.512 68.5374 161.45 68.65 161.388 68.7744C161.099 69.3237 160.776 69.9114 160.422 70.5377C159.797 71.6637 159.177 72.6937 158.562 73.6277C157.982 74.415 157.294 75.3307 156.498 76.3747C154.861 78.5137 153.317 80.1667 151.866 81.3337C149.072 83.5397 146.651 84.7234 144.601 84.8844ZM143.929 81.706C144.495 81.6614 145.197 81.391 146.035 80.8944C146.375 80.676 146.768 80.4057 147.218 80.0834C148.966 78.7734 150.561 77.164 152.002 75.2557C152.735 74.3127 153.355 73.4324 153.861 72.6147C154.367 71.797 154.878 70.9014 155.396 69.9274C155.852 69.0777 156.201 68.374 156.443 67.8167C156.684 67.259 156.994 66.5107 157.372 65.5717L157.725 64.6104C158.244 63.349 158.532 62.4767 158.59 61.9937C158.606 61.8967 158.612 61.8244 158.608 61.7767C158.629 61.7274 158.638 61.6907 158.636 61.6667C158.63 61.5954 158.6 61.508 158.544 61.4047C158.489 61.3014 158.402 61.2544 158.285 61.2637C157.978 61.2877 157.471 61.6267 156.763 62.2807C154.769 64.0887 152.605 66.317 150.273 68.9654C147.962 71.5884 146.135 73.8737 144.791 75.8224C144.281 76.5804 143.848 77.3504 143.493 78.132C143.139 78.914 142.91 79.56 142.807 80.0707C142.708 80.318 142.666 80.5487 142.683 80.7627C142.699 80.9767 142.772 81.1507 142.901 81.284C143.139 81.6004 143.481 81.741 143.929 81.706ZM57.3752 77.5554C55.938 77.6684 54.7058 77.3704 53.6792 76.661C52.5038 75.8677 51.861 74.7577 51.751 73.33C51.6741 72.331 51.8636 71.251 52.3193 70.0904C52.6068 69.206 53.1381 68.255 53.913 67.2367C55.0065 65.7387 56.4573 64.2604 58.2653 62.802L58.8712 62.3597C59.4091 61.9584 59.9254 61.5827 60.42 61.2327C63.5015 59.076 67.0829 57.251 71.1642 55.7577C72.061 55.4 72.7025 55.11 73.0884 54.8884C73.4744 54.6667 73.7316 54.467 73.8601 54.2894C74.1823 53.857 74.7769 52.805 75.644 51.1334C76.4853 49.4397 77.352 47.6127 78.2441 45.6517C78.3669 45.4027 78.5686 44.944 78.8493 44.276L79.3621 43.0867C79.7692 42.217 80.2205 41.1524 80.7161 39.893C81.0327 39.0784 81.3735 38.2737 81.739 37.479C81.8783 37.133 82.0087 36.8237 82.1299 36.5507C82.3722 36.0054 82.5621 35.5474 82.6998 35.1777C82.9276 34.753 83.1046 34.356 83.2304 33.9874C83.3558 33.6184 83.4143 33.3744 83.405 33.2554C83.4212 33.1584 83.4275 33.0864 83.4238 33.0387C83.4436 32.989 83.4526 32.9527 83.4509 32.9287C83.4473 32.881 83.4318 32.8347 83.4047 32.7887C83.4007 32.7414 83.3855 32.6947 83.3581 32.6487C83.2855 32.3194 82.8249 32.188 81.9767 32.2547L80.6362 32.396C78.8506 32.608 77.5603 32.781 76.7646 32.9157C76.0577 32.971 75.5664 33.0574 75.291 33.175C74.6313 33.2267 74.0684 33.3067 73.6025 33.4154C72.9901 33.4634 72.0775 33.6187 70.8647 33.8817C70.8178 33.8854 70.7706 33.889 70.7234 33.8927C70.1816 33.9354 69.6243 34.009 69.0514 34.1137C68.4786 34.2187 68.0292 34.3077 67.703 34.3814C66.7604 34.4554 66.1505 34.539 65.8732 34.6327C65.6374 34.6514 65.4535 34.6477 65.3211 34.6224C65.1887 34.5967 65.0745 34.5757 64.9784 34.5594C64.9061 34.541 64.8335 34.523 64.7608 34.5047C64.5162 34.4044 64.3465 34.28 64.252 34.1317C64.1576 33.9837 64.1015 33.7907 64.083 33.5527C64.1477 32.8537 64.5997 32.411 65.4387 32.2257C66.76 31.8347 68.0867 31.515 69.4186 31.2667C70.0495 31.1454 71.2448 30.9677 73.0049 30.7337C73.0756 30.728 73.1462 30.7227 73.2169 30.717L76.5582 30.239C78.1533 30.018 79.9877 29.826 82.0612 29.6634C85.3837 29.4024 88.383 29.2504 91.0584 29.2077C92.8803 29.1604 94.2337 29.1857 95.1182 29.2837C96.0031 29.3817 96.575 29.5764 96.8345 29.867C97.1683 30.1997 97.3489 30.5447 97.3766 30.9014C97.406 31.282 97.2756 31.5914 96.9857 31.8297C96.9206 31.9067 96.7938 31.9524 96.6053 31.9674C96.393 31.984 96.0695 31.9374 95.6343 31.828C95.1737 31.6967 94.545 31.6144 93.7483 31.5814C92.9516 31.548 91.7495 31.559 90.1415 31.6134C89.5036 31.6397 88.9843 31.6684 88.5834 31.7C88.1595 31.733 87.8495 31.7874 87.6537 31.8627C87.4579 31.938 87.3195 32.0624 87.238 32.2364C87.1294 32.3647 87.0402 32.515 86.9706 32.688C86.9009 32.861 86.8563 33.128 86.8368 33.4887C86.6136 35.5164 85.8975 38.373 84.6881 42.058C84.3351 43.0194 83.581 44.9214 82.4251 47.7647L81.6165 49.7307C81.5967 49.7804 81.5759 49.8177 81.5541 49.8434C81.2665 50.4164 81.0618 50.8394 80.9406 51.1124C80.8194 51.385 80.7653 51.6047 80.7782 51.7714C80.8168 52.2707 81.105 52.4757 81.6432 52.3854C82.0441 52.354 82.778 52.1887 83.8455 51.8894C86.7071 51.1857 88.6092 50.797 89.5518 50.723C89.9523 50.6914 90.2264 50.706 90.373 50.766C90.6923 50.9087 90.86 51.087 90.8765 51.301C90.893 51.515 90.7537 51.7057 90.4585 51.8724C90.3875 51.878 90.2244 51.9147 89.9688 51.9827C89.6918 52.0764 89.3782 52.1607 89.0285 52.236C87.9789 52.462 86.1412 52.9177 83.5153 53.6027L81.2153 54.214C80.5447 54.4344 80.0333 54.642 79.681 54.837C79.3284 55.0324 79.0553 55.2574 78.8618 55.5117L78.5792 56.0007C77.9314 57.1287 77.4428 58.0167 77.1133 58.6647C77.0518 58.7894 76.9894 58.902 76.926 59.0027C76.4862 59.7554 75.8117 60.8494 74.9031 62.285C74.8833 62.3344 74.8625 62.372 74.8407 62.3977C73.9284 63.7857 73.0974 64.9997 72.3475 66.04C69.4562 70.0487 66.6128 72.9884 63.8172 74.8594C61.2663 76.5197 59.1192 77.4184 57.3752 77.5554ZM56.459 74.4324C56.7416 74.41 57.1015 74.31 57.5383 74.132C57.8645 74.0587 58.1765 73.9564 58.4747 73.825C58.7728 73.694 59.1155 73.5294 59.5035 73.3314L60.0172 73.0757C60.8721 72.482 61.6902 71.8674 62.4707 71.2317L62.8079 70.9897L63.6907 69.987C64.7394 68.8274 65.4555 67.9694 65.8392 67.4127C65.9696 67.259 66.2159 66.9164 66.5781 66.3854C66.7283 66.182 66.8885 65.954 67.0585 65.7014C68.2158 64.1027 69.4133 62.2614 70.6511 60.1777C70.7346 60.0277 70.8188 59.8894 70.9037 59.763C71.2368 59.1624 71.4432 58.7634 71.5228 58.5654C71.5191 58.518 71.5261 58.4577 71.5442 58.3844C71.5406 58.3367 71.538 58.301 71.536 58.2774C71.5102 57.9444 71.3326 57.7907 71.0027 57.8167C70.4372 57.861 69.2657 58.348 67.4881 59.2774C65.9587 60.0437 64.5627 60.8474 63.3001 61.6887C59.7855 64.0707 57.2342 66.497 55.6467 68.9674C55.6266 69.0167 55.6068 69.0664 55.587 69.1157C55.377 69.4674 55.1723 69.8904 54.9735 70.3844C54.5664 71.254 54.3894 72.034 54.4426 72.7237C54.5086 73.5804 54.9775 74.1297 55.8498 74.3724C56.0439 74.429 56.247 74.449 56.459 74.4324Z" fill="white"/>
</svg>
