<?xml version="1.0" encoding="utf-8"?><svg viewBox="0 0 502.66 502.66" xmlns="http://www.w3.org/2000/svg" xmlns:xlink="http://www.w3.org/1999/xlink"><style>:root>svg{display:none}:root>svg:target{display:block}</style><svg viewBox="0 0 21 21" id="artix" xmlns="http://www.w3.org/2000/svg"><g clip-path="url(#aa)"><path d="M3.898 17.328a2.2 2.2 0 00-.626-.485 2.185 2.185 0 00-.9-.247h-.139A2.18 2.18 0 001 16.96a2.25 2.25 0 00-.812.956c-.06.137-.106.28-.138.427a2.054 2.054 0 000 .905c.032.147.079.29.138.428.177.386.458.714.812.95.363.244.793.372 1.232.366a2.266 2.266 0 00.958-.208l.065-.036a.671.671 0 01.105-.051l.097-.037.05.076a.512.512 0 00.448.255.528.528 0 00.367-.15.479.479 0 00.167-.36v-1.687a2.117 2.117 0 00-.16-.793 2.335 2.335 0 00-.43-.673zm-.572 1.93a1.16 1.16 0 01-.635.62 1.186 1.186 0 01-.463.09c-.153 0-.304-.032-.443-.094a1.31 1.31 0 01-.375-.25 1.26 1.26 0 01-.265-.37 1.101 1.101 0 01-.006-.91 1.23 1.23 0 01.637-.634 1.134 1.134 0 01.907 0 1.245 1.245 0 01.641.633 1.143 1.143 0 01.001.92v-.004zm4.25-2.651c-.293.01-.58.074-.85.186-.26.107-.498.26-.702.454a2.192 2.192 0 00-.469.672 1.92 1.92 0 00-.178.82v1.756a.487.487 0 00.311.474.48.48 0 00.19.032.526.526 0 00.494-.281.46.46 0 00.045-.185v-1.732a1.137 1.137 0 01.338-.84 1.165 1.165 0 01.83-.339.554.554 0 00.376-.154.469.469 0 00.15-.35.566.566 0 00-.336-.478.495.495 0 00-.2-.035zm5.254 3.216a.438.438 0 00-.118-.15.53.53 0 00-.374-.138h-.01a.554.554 0 00-.375.137.98.98 0 01-.35.216c-.152.05-.31.074-.47.07-.164 0-.326-.032-.476-.097a1.155 1.155 0 01-.38-.264 1.19 1.19 0 01-.291-.839v-1.132h1.175a.486.486 0 00.356-.161.506.506 0 00.016-.726.464.464 0 00-.372-.137H9.986v-.988a.43.43 0 00-.154-.346.612.612 0 00-.403-.138.593.593 0 00-.397.138.43.43 0 00-.154.346v3.136a2.16 2.16 0 00.69 1.63c.216.198.47.353.744.455.29.107.597.162.906.16a2.11 2.11 0 00.83-.163 2.35 2.35 0 00.71-.473.39.39 0 00.098-.156.53.53 0 00.027-.194.484.484 0 00-.054-.186zm7.178.297l-1.336-1.326 1.334-1.326a.498.498 0 00.139-.362.477.477 0 00-.139-.354.524.524 0 00-.363-.157h-.006a.47.47 0 00-.339.147l-1.364 1.328-1.336-1.315a.61.61 0 00-.365-.159.461.461 0 00-.364.156.621.621 0 00-.155.363.4.4 0 00.138.332l1.365 1.346-1.365 1.346a.46.46 0 00-.138.358c.004.134.06.26.156.353a.451.451 0 00.368.138.606.606 0 00.37-.138l1.33-1.32 1.335 1.296a.508.508 0 00.38.168.49.49 0 00.478-.307.474.474 0 00.035-.202.507.507 0 00-.158-.364zm-5.418-3.379a.575.575 0 00-.108-.073.46.46 0 00-.252-.07.46.46 0 00-.252.07.575.575 0 00-.107.073.432.432 0 00-.158.332v3.438a.46.46 0 00.167.355.499.499 0 00.345.124h.018c.126.004.25-.04.344-.124a.46.46 0 00.167-.355v-3.438a.43.43 0 00-.164-.332zm.027-1.448a.462.462 0 00-.35-.151.52.52 0 00-.363.138.468.468 0 00-.162.343.5.5 0 00.138.388.569.569 0 00.385.146.464.464 0 00.347-.152.507.507 0 000-.716l.005.004z"/></g><g clip-path="url(#ab)"><path d="M10.079 5.58c-1.512 0-2.887 1.371-2.887 3.064.002.622.188 1.229.53 1.734.735-.461 1.53-.787 2.362-.787.832 0 1.626.326 2.361.787a3.113 3.113 0 00.531-1.734c-.005-1.693-1.381-3.065-2.897-3.065z"/><path d="M10.077 0c-3.711 0-6.72 8.32-6.72 12.203 0 3.014 1.813-.223 4.359-1.825a3.087 3.087 0 01-.53-1.813c.017-.65.234-1.275.62-1.781-.124.31-.187.644-.186.98 0 .69.258 1.353.72 1.84a2.39 2.39 0 001.737.763 2.39 2.39 0 001.738-.762c.46-.488.72-1.15.72-1.84 0-.337-.063-.67-.186-.981a3.07 3.07 0 01.618 1.781c.017.65-.17 1.287-.528 1.813 2.547 1.601 4.358 4.839 4.358 1.825C16.797 8.321 13.788 0 10.077 0z"/></g><defs><clipPath id="aa"><path d="M0 15.12h20.16V21H0z"/></clipPath><clipPath id="ab"><path d="M3.36 0H16.8v13.44H3.36z"/></clipPath></defs></svg><svg viewBox="0 0 502.664 502.664" id="icon" xmlns="http://www.w3.org/2000/svg"><path d="M153.821 358.226L0 274.337v-46.463l153.821-83.414v54.574L46.636 250.523l107.185 53.431v54.272zm26.273 29.358L282.103 115.08h32.227L212.084 387.584h-31.99zm168.749-29.358v-54.272l107.164-52.999-107.164-52.59v-53.927l153.821 83.522v46.183l-153.821 84.083z"/></svg><svg viewBox="0 0 200 200" id="play" xmlns="http://www.w3.org/2000/svg"><g filter="url(#ca)"><path fill-rule="evenodd" clip-rule="evenodd" d="M100 175c41.421 0 75-33.579 75-75s-33.579-75-75-75-75 33.579-75 75 33.579 75 75 75zM76.783 59.324l71.644 39.802a1 1 0 010 1.748l-71.644 39.802A1.2 1.2 0 0175 139.627V60.373a1.2 1.2 0 011.783-1.05z" fill-opacity=".36"/></g><defs><filter id="ca" x="5" y="5" width="190" height="190" filterUnits="userSpaceOnUse" color-interpolation-filters="sRGB"><feFlood flood-opacity="0" result="BackgroundImageFix"/><feGaussianBlur in="BackgroundImage" stdDeviation="10"/><feComposite in2="SourceAlpha" operator="in" result="effect1_backgroundBlur_137_456"/><feBlend in="SourceGraphic" in2="effect1_backgroundBlur_137_456" result="shape"/></filter></defs></svg><svg viewBox="0 0 37 32" id="telegramm" xmlns="http://www.w3.org/2000/svg"><g filter="url(#da)"><path d="M.64 15.26A18.25 18.25 0 0111.7 26.938l.609 1.956c.142.71.996.853 1.565.427l4.696-3.835c.427-.426 1.139-.426 1.708 0l8.396 6.107c.569.426 1.423.142 1.565-.568L36.5 1.2c.142-.71-.57-1.42-1.28-1.136L.64 13.414c-.853.284-.853 1.562 0 1.846zm10.632 2.093c.274-.485.849-.676 1.324-.966l15.793-9.648c.465-.232.092.607-.288.962L15.155 19.805c-.427.426-.854.994-.854 1.704l-.427 3.409c0 .426-.711.568-.854 0l-1.346-4.93c-.24-.875-.849-1.845-.402-2.635z" fill-opacity=".32"/></g><defs><filter id="da" x="-20" y="-20" width="76.519" height="71.793" filterUnits="userSpaceOnUse" color-interpolation-filters="sRGB"><feFlood flood-opacity="0" result="BackgroundImageFix"/><feGaussianBlur in="BackgroundImage" stdDeviation="10"/><feComposite in2="SourceAlpha" operator="in" result="effect1_backgroundBlur_64_152"/><feBlend in="SourceGraphic" in2="effect1_backgroundBlur_64_152" result="shape"/></filter></defs></svg><svg viewBox="0 0 33 36" id="viber" xmlns="http://www.w3.org/2000/svg"><g filter="url(#ea)"><path d="M25.557.854a48.686 48.686 0 00-18.162 0c-2.644.57-5.978 3.76-6.553 6.267a35.726 35.726 0 000 14.81c.66 2.396 3.733 5.415 6.211 6.175.225.07.572.084.572.32v7.177c0 .648.917-.005 1.37-.468l2.726-2.793.082-.085c.343-.353 2.75-2.838 3.178-3.262.008-.007.12-.114.23-.114 3.45.114 7.013-.228 10.461-.797 2.644-.57 5.978-3.76 6.553-6.266a35.73 35.73 0 000-14.811c-.69-2.393-4.024-5.583-6.668-6.153zm.115 21.42c-.575 1.139-1.264 2.05-2.414 2.62-.676.223-1.403.257-2.08.034l-.104-.034c-3.678-1.481-7.127-3.532-9.886-6.494-1.494-1.71-2.759-3.646-3.793-5.697-.46-1.025-.92-1.937-1.265-2.962-.345-.911.23-1.823.805-2.506.575-.684 1.264-1.14 2.069-1.482.575-.341 1.15-.113 1.61.342.919 1.14 1.839 2.279 2.528 3.532.335.581.365 1.223.046 1.748-.255.42-.732.64-1.08.986-.115.114-.345.228-.46.456-.23.342-.23.684-.115 1.025.92 2.62 2.644 4.672 5.288 5.81.46.229.805.343 1.38.343.804-.114 1.149-1.026 1.724-1.481.574-.456 1.264-.456 1.954-.114.575.341 1.15.797 1.84 1.253.574.456 1.149.797 1.723 1.253.345.228.46.798.23 1.367zm-4.828-8.546c-.23 0-.115 0 0 0-.222 0-.363-.053-.463-.146-.235-.219-.205-.587-.25-.905a2.953 2.953 0 00-.19-.628 2.22 2.22 0 00-.236-.452c-.255-.375-.674-.59-1.08-.791l-.08-.04a2.292 2.292 0 00-.035-.01c-.565-.18-1.344-.194-1.344-.787 0-.228.345-.456.575-.456 1.839.114 3.218 1.14 3.448 3.304v.456c0 .228-.115.456-.345.456zm-1.15-5.012c-.34-.136-.682-.271-1.047-.382-.518-.158-1.054-.302-1.596-.302a.571.571 0 01-.336-.096c-.283-.205-.21-.751.097-.915.209-.112.473-.004.708.025 1.01.124 1.937.35 2.864.758 1.966.974 3.102 2.566 3.506 4.676.043.223.058.451.058.679v.797c0 .227-.009.484-.194.615a.616.616 0 01-.557.078c-.293-.113-.398-.493-.398-.806a6.6 6.6 0 00-.69-2.963c-.69-1.025-1.495-1.709-2.414-2.164zm6.208 6.835c-.345 0-.575-.341-.575-.683 0-.684-.115-1.367-.23-2.05-.46-3.647-3.448-6.609-7.012-7.178a6.47 6.47 0 00-.496-.076c-.741-.088-1.85.116-2.033-.608-.115-.342.23-.684.575-.684.153 0 .313.002.466.006 4.323.104-.01-.006-.236-.006 4.828.114 8.851 3.304 9.656 8.09.073.505.146 1.01.19 1.545.05.625.322 1.644-.305 1.644z" fill-opacity=".32"/></g><defs><filter id="ea" x="-19.934" y="-20" width="72.935" height="75.875" filterUnits="userSpaceOnUse" color-interpolation-filters="sRGB"><feFlood flood-opacity="0" result="BackgroundImageFix"/><feGaussianBlur in="BackgroundImage" stdDeviation="10"/><feComposite in2="SourceAlpha" operator="in" result="effect1_backgroundBlur_64_154"/><feBlend in="SourceGraphic" in2="effect1_backgroundBlur_64_154" result="shape"/></filter></defs></svg><svg class="flink__svg" viewBox="0 0 200 200" id="video-text" xmlns="http://www.w3.org/2000/svg"><path id="fa" class="flink__path" d="M20 100a80 80 0 11160 0 80 80 0 11-160 0"/><g filter="url(#fa)"><path fill-rule="evenodd" clip-rule="evenodd" d="M73 127.75c30.238 0 54.75-24.512 54.75-54.75S103.238 18.25 73 18.25 18.25 42.762 18.25 73 42.762 127.75 73 127.75zM56.533 43.574l51.394 28.552a1 1 0 010 1.748l-51.394 28.552a1.2 1.2 0 01-1.783-1.049V44.623a1.2 1.2 0 011.783-1.05z" fill-opacity=".12"/><text class="flink__text"><textPath href="#a"> Рассчитать стоимость </textPath></text></g><text class="flink__text"><textPath href="#a"> Рассчитать стоимость </textPath></text><defs><filter id="fa" x="-1.75" y="-1.75" width="149.5" height="149.5" filterUnits="userSpaceOnUse" color-interpolation-filters="sRGB"><feFlood flood-opacity="0" result="BackgroundImageFix"/><feGaussianBlur in="BackgroundImage" stdDeviation="10"/><feComposite in2="SourceAlpha" operator="in" result="effect1_backgroundBlur_229_2379"/><feBlend in="SourceGraphic" in2="effect1_backgroundBlur_229_2379" result="shape"/></filter></defs></svg><svg viewBox="0 0 33 32" id="watsapp" xmlns="http://www.w3.org/2000/svg"><g filter="url(#ga)"><path d="M27.792 4.636A15.835 15.835 0 0016.582 0C7.813 0 .71 7.065.71 15.786c0 2.76.777 5.52 2.109 7.838l-2.22 8.169 8.435-2.208c2.331 1.214 4.884 1.877 7.548 1.877 8.768 0 15.872-7.065 15.872-15.786-.11-4.085-1.665-8.059-4.662-11.04zm-3.551 16.78c-.333.883-1.887 1.766-2.664 1.877-.666.11-1.554.11-2.442-.11-.555-.221-1.332-.442-2.22-.884-3.996-1.656-6.549-5.63-6.77-5.96-.223-.222-1.666-2.098-1.666-4.085s1-2.87 1.332-3.312c.333-.442.777-.442 1.11-.442h.777c.222 0 .555-.11.888.663.333.772 1.11 2.76 1.221 2.87a.7.7 0 010 .662c-.111.22-.222.442-.444.662-.222.221-.444.552-.555.663-.222.22-.444.441-.222.773.222.441.999 1.655 2.22 2.76 1.554 1.324 2.775 1.766 3.219 1.986.444.221.666.11.888-.11.222-.22.999-1.104 1.22-1.545.223-.442.556-.332.889-.221.333.11 2.33 1.104 2.664 1.325.444.22.666.33.776.441.111.331.111 1.104-.221 1.987z" fill-opacity=".32"/></g><defs><filter id="ga" x="-19.401" y="-20" width="71.856" height="71.793" filterUnits="userSpaceOnUse" color-interpolation-filters="sRGB"><feFlood flood-opacity="0" result="BackgroundImageFix"/><feGaussianBlur in="BackgroundImage" stdDeviation="10"/><feComposite in2="SourceAlpha" operator="in" result="effect1_backgroundBlur_64_156"/><feBlend in="SourceGraphic" in2="effect1_backgroundBlur_64_156" result="shape"/></filter></defs></svg></svg>