<svg xmlns="http://www.w3.org/2000/svg">
  <symbol viewBox="0 0 16 18" id="rub">
    <path
      d="M3.05231 18C2.88821 18 2.74872 17.94 2.63385 17.82C2.51897 17.7 2.46154 17.5543 2.46154 17.3829V14.5543H0.590769C0.426667 14.5543 0.287179 14.4943 0.172308 14.3743C0.0574359 14.2543 0 14.1086 0 13.9371V13.14C0 12.9686 0.0574359 12.8229 0.172308 12.7029C0.287179 12.5829 0.426667 12.5229 0.590769 12.5229H2.46154V11.1343H0.590769C0.426667 11.1343 0.287179 11.0743 0.172308 10.9543C0.0574359 10.8343 0 10.6886 0 10.5171V9.12857C0 8.94 0.0574359 8.79429 0.172308 8.69143C0.287179 8.57143 0.426667 8.51143 0.590769 8.51143H2.46154V0.642858C2.46154 0.454286 2.51077 0.3 2.60923 0.180001C2.7241 0.0600002 2.8718 0 3.05231 0H9.62461C11.6103 0 13.1692 0.488572 14.3015 1.46572C15.4338 2.42572 16 3.84 16 5.70857C16 7.50857 15.4338 8.86286 14.3015 9.77143C13.1692 10.68 11.6103 11.1343 9.62461 11.1343H5.98154V12.5229H9.99385C10.1579 12.5229 10.2974 12.5829 10.4123 12.7029C10.5272 12.8229 10.5846 12.9686 10.5846 13.14V13.9371C10.5846 14.1086 10.5272 14.2543 10.4123 14.3743C10.3138 14.4943 10.1744 14.5543 9.99385 14.5543H5.98154V17.3829C5.98154 17.5543 5.9241 17.7 5.80923 17.82C5.69436 17.94 5.54667 18 5.36615 18H3.05231ZM9.50154 8.51143C10.4533 8.51143 11.1836 8.28 11.6923 7.81714C12.2174 7.33714 12.48 6.63429 12.48 5.70857C12.48 4.81714 12.2338 4.12286 11.7415 3.62572C11.2492 3.11143 10.5026 2.85429 9.50154 2.85429H5.93231V8.51143H9.50154Z" />
  </symbol>

  <symbol viewBox="0 0 19 20" id="name">
    <path
      d="M9.05001 0C6.17728 0 3.82896 2.33559 3.82896 5.19275C3.82896 8.04991 6.17728 10.3855 9.05001 10.3855C11.9227 10.3855 14.2711 8.04991 14.2711 5.19275C14.2711 2.33559 11.9227 0 9.05001 0Z" />
    <path
      d="M18.0104 14.5352C17.8735 14.195 17.6912 13.8776 17.486 13.5828C16.4372 12.0408 14.8185 11.0204 12.9945 10.771C12.7666 10.7483 12.5158 10.7936 12.3334 10.9297C11.3758 11.6327 10.2358 11.9955 9.05024 11.9955C7.86465 11.9955 6.7247 11.6327 5.76712 10.9297C5.58471 10.7936 5.33391 10.7256 5.10594 10.771C3.28199 11.0204 1.64045 12.0408 0.614493 13.5828C0.409301 13.8776 0.226889 14.2177 0.090123 14.5352C0.0217401 14.6712 0.0445198 14.83 0.112903 14.966C0.295315 15.2835 0.523287 15.601 0.728479 15.8731C1.04766 16.3039 1.38966 16.6894 1.77726 17.0522C2.09644 17.3696 2.46122 17.6644 2.82605 17.9592C4.62717 19.2971 6.79313 20 9.02746 20C11.2618 20 13.4277 19.2971 15.2289 17.9592C15.5937 17.6871 15.9584 17.3696 16.2777 17.0522C16.6424 16.6894 17.0072 16.3039 17.3264 15.8731C17.5544 15.5783 17.7596 15.2835 17.942 14.966C18.056 14.83 18.0787 14.6712 18.0104 14.5352Z" />
  </symbol>

  <symbol viewBox="0 0 18 18" id="plat">
    <path
      d="M8.03493 0.626925C8.42969 -0.208975 9.57031 -0.208975 9.96507 0.626925L11.9125 4.75048C12.0693 5.08242 12.3723 5.31249 12.7228 5.36572L17.0774 6.02696C17.9601 6.161 18.3126 7.29463 17.6738 7.94529L14.5228 11.155C14.2692 11.4134 14.1534 11.7857 14.2133 12.1505L14.9572 16.6827C15.108 17.6015 14.1852 18.3021 13.3956 17.8683L9.5008 15.7285C9.18728 15.5562 8.81272 15.5562 8.4992 15.7285L4.60436 17.8683C3.81482 18.3021 2.89205 17.6015 3.04283 16.6827L3.78668 12.1505C3.84656 11.7857 3.73082 11.4134 3.47717 11.155L0.326178 7.94529C-0.312569 7.29463 0.0398995 6.161 0.922627 6.02696L5.27719 5.36572C5.62772 5.31249 5.93074 5.08242 6.08751 4.75048L8.03493 0.626925Z" />
  </symbol>

  <symbol viewBox="0 0 18 16" id="litium">
    <path d="M9 0L18 16H0L9 0Z" />
  </symbol>

  <symbol viewBox="0 0 20 20" id="ayrum">
    <path fill-rule="evenodd" clip-rule="evenodd"
      d="M20 10C20 15.5228 15.5228 20 10 20C4.47715 20 0 15.5228 0 10C0 4.47715 4.47715 0 10 0C15.5228 0 20 4.47715 20 10ZM10 16.6667C13.6819 16.6667 16.6667 13.6819 16.6667 10C16.6667 6.3181 13.6819 3.33333 10 3.33333V16.6667Z" />
  </symbol>

  <symbol viewBox="0 0 16 16" id="chromium">
    <path d="M0 0V16L8 11.1111L16 16L16 0L8 4.88889L0 0Z" />
  </symbol>

  <symbol viewBox="0 0 22 22" id="titanium">
    <path fill-rule="evenodd" clip-rule="evenodd"
      d="M11 0L0 11L11 22L22 11L11 0ZM11 17.7574L17.7574 11L11 4.24264V17.7574Z" />
  </symbol>

  <symbol viewBox="0 0 20 16" id="death">
    <path
      d="M0 5.71429V6.28571C0 6.60156 0.262068 6.85714 0.585933 6.85714C0.908665 6.85714 1.17187 7.1133 1.17757 7.34766L0.204647 14.043C0.0538668 15.0736 0.869994 16 1.93749 16H4.24231C5.12352 16 5.87308 15.3566 5.98636 14.5034L6.39034 11.4286H8.789C9.75829 11.4286 10.5468 10.6596 10.5468 9.71429V8H17.0702C17.2922 8 17.4948 7.87779 17.5943 7.68415L18.6042 5.71429C4.42684 5.71429 7.58862 5.71429 0 5.71429ZM7.0312 10.2857C6.3846 10.2857 5.85933 9.77288 5.85933 9.14286C5.85933 8.51284 6.3846 8 7.0312 8H7.0701C6.90874 8.50434 6.87983 9.04457 7.02206 9.56472C7.09229 9.82339 7.21089 10.0606 7.34936 10.2857H7.0312ZM9.37493 9.71429C9.37493 9.98598 9.17552 10.203 8.91501 10.2609C8.54466 10.0354 8.26799 9.68693 8.15385 9.27177C8.03627 8.83977 8.10748 8.38427 8.33494 8H9.37493V9.71429Z" />
    <path
      d="M19.4141 1.14286H18.8281V0.571429C18.8281 0.255581 18.5661 0 18.2422 0C17.9183 0 17.6563 0.255581 17.6563 0.571429V1.14286H1.7578C1.43393 1.14286 1.17187 1.39844 1.17187 1.71429C1.17187 2.02956 0.908665 2.28571 0.585933 2.28571C0.262068 2.28571 0 2.5413 0 2.85714V4.57143H20V1.71429C20 1.39844 19.7379 1.14286 19.4141 1.14286Z" />
  </symbol>

</svg>