<svg width="18" height="17" viewBox="0 0 18 17" fill="none" xmlns="http://www.w3.org/2000/svg">
<path d="M16.7359 5.89648L11.7769 5.17578L9.56013 0.68164C9.49958 0.558593 9.39997 0.458984 9.27692 0.398437C8.96833 0.246093 8.59333 0.373046 8.43903 0.68164L6.22223 5.17578L1.26325 5.89648C1.12653 5.91602 1.00153 5.98047 0.905829 6.07812C0.790129 6.19704 0.726373 6.35703 0.728571 6.52293C0.730768 6.68883 0.798739 6.84708 0.917548 6.96289L4.50544 10.4609L3.65778 15.4004C3.6379 15.5153 3.65062 15.6335 3.69449 15.7415C3.73835 15.8496 3.81161 15.9431 3.90596 16.0117C4.00031 16.0802 4.11198 16.1209 4.22829 16.1292C4.3446 16.1375 4.46091 16.113 4.56403 16.0586L8.99958 13.7266L13.4351 16.0586C13.5562 16.123 13.6968 16.1445 13.8316 16.1211C14.1715 16.0625 14.4 15.7402 14.3414 15.4004L13.4937 10.4609L17.0816 6.96289C17.1793 6.86719 17.2437 6.74219 17.2633 6.60547C17.316 6.26367 17.0777 5.94727 16.7359 5.89648Z" fill="#FFC107"/>
</svg>
