<svg width="18" height="17" viewBox="0 0 18 17" fill="none" xmlns="http://www.w3.org/2000/svg">
<path d="M11.3285 5.39697L11.4448 5.63277L11.705 5.67058L16.6624 6.39106C16.6626 6.39108 16.6628 6.39111 16.663 6.39114C16.7361 6.4023 16.7786 6.4674 16.7691 6.52923L16.7691 6.52922L16.7683 6.53476C16.7646 6.56043 16.7525 6.58524 16.732 6.60544C16.7319 6.60555 16.7318 6.60567 16.7316 6.60578L13.1447 10.1029L12.9565 10.2864L13.0009 10.5455L13.8486 15.485L13.8486 15.4853C13.8601 15.5518 13.8156 15.6165 13.7467 15.6284L13.7459 15.6285C13.7184 15.6333 13.6909 15.6283 13.6701 15.6172L13.6678 15.616L9.23226 13.284L8.99958 13.1617L8.7669 13.284L4.33135 15.616L4.33058 15.6164C4.31008 15.6273 4.28697 15.6321 4.26385 15.6305C4.24073 15.6288 4.21854 15.6207 4.19979 15.6071C4.18104 15.5935 4.16648 15.5749 4.15776 15.5534C4.14904 15.5319 4.14651 15.5085 4.15046 15.4856L4.15058 15.485L4.99823 10.5455L5.04269 10.2864L4.85448 10.1029L1.26659 6.60488L1.26656 6.60485C1.24265 6.58154 1.22897 6.5497 1.22853 6.51631C1.22809 6.48322 1.24069 6.4513 1.26358 6.42743C1.28373 6.40715 1.30842 6.39511 1.33396 6.39146L1.33516 6.39129L6.29415 5.67058L6.55434 5.63277L6.67065 5.39697L8.88624 0.905247C8.88638 0.904975 8.88652 0.904704 8.88665 0.904433C8.9189 0.841033 8.99549 0.817114 9.05559 0.84678L9.05617 0.847066C9.08019 0.858886 9.09968 0.878373 9.1115 0.902394L9.11171 0.902827L11.3285 5.39697Z" stroke="#FFC107"/>
</svg>
