<svg width="31" height="31" viewBox="0 0 31 31" fill="none" xmlns="http://www.w3.org/2000/svg">
<path d="M15.5 5.1665V7.74984" stroke="#FFC107" stroke-width="2" stroke-linecap="round"/>
<path d="M15.5009 15.4994L8.00114 7.99983" stroke="#FFC107" stroke-width="2" stroke-linecap="round"/>
<path d="M25.834 15.5L23.2507 15.5" stroke="#FFC107" stroke-width="2" stroke-linecap="round"/>
<path d="M15.5 23.25V25.8333" stroke="#FFC107" stroke-width="2" stroke-linecap="round"/>
<path d="M7.75 15.5L5.16667 15.5" stroke="#FFC107" stroke-width="2" stroke-linecap="round"/>
<path d="M15.5 4.875C17.9582 4.875 20.3403 5.72733 22.2404 7.28676C24.1406 8.8462 25.4413 11.0162 25.9208 13.4272C26.4004 15.8381 26.0292 18.3407 24.8704 20.5086C23.7116 22.6765 21.837 24.3755 19.566 25.3162C17.295 26.2569 14.768 26.3811 12.4157 25.6675C10.0634 24.9539 8.03131 23.4468 6.66563 21.4029C5.29996 19.3591 4.68522 16.9049 4.92616 14.4586C5.1671 12.0123 6.24882 9.72516 7.98699 7.98699" stroke="#FFC107" stroke-width="2" stroke-linecap="round"/>
</svg>
