<svg width="22" height="22" viewBox="0 0 22 22" fill="none" xmlns="http://www.w3.org/2000/svg">
<path d="M1 8.71429V9.28571C1 9.60156 1.26207 9.85714 1.58593 9.85714C1.90867 9.85714 2.17187 10.1133 2.17757 10.3477L1.20465 17.043C1.05387 18.0736 1.86999 19 2.93749 19H5.24231C6.12352 19 6.87308 18.3566 6.98636 17.5034L7.39034 14.4286H9.789C10.7583 14.4286 11.5468 13.6596 11.5468 12.7143V11H18.0702C18.2922 11 18.4948 10.8778 18.5943 10.6842L19.6042 8.71429C5.42684 8.71429 8.58862 8.71429 1 8.71429ZM8.0312 13.2857C7.3846 13.2857 6.85933 12.7729 6.85933 12.1429C6.85933 11.5128 7.3846 11 8.0312 11H8.0701C7.90874 11.5043 7.87983 12.0446 8.02206 12.5647C8.09229 12.8234 8.21089 13.0606 8.34936 13.2857H8.0312ZM10.3749 12.7143C10.3749 12.986 10.1755 13.203 9.91501 13.2609C9.54466 13.0354 9.26799 12.6869 9.15385 12.2718C9.03627 11.8398 9.10748 11.3843 9.33494 11H10.3749V12.7143Z" fill="#CCD2D9"/>
<path d="M20.4141 4.14286H19.8281V3.57143C19.8281 3.25558 19.5661 3 19.2422 3C18.9183 3 18.6563 3.25558 18.6563 3.57143V4.14286H2.7578C2.43393 4.14286 2.17187 4.39844 2.17187 4.71429C2.17187 5.02956 1.90867 5.28571 1.58593 5.28571C1.26207 5.28571 1 5.5413 1 5.85714V7.57143H21V4.71429C21 4.39844 20.7379 4.14286 20.4141 4.14286Z" fill="#CCD2D9"/>
</svg>
